<?xml version="1.0" encoding="utf-8"?>
<!-- Generator: Adobe Illustrator 17.1.0, SVG Export Plug-In . SVG Version: 6.00 Build 0)  -->
<!DOCTYPE svg PUBLIC "-//W3C//DTD SVG 1.1//EN" "http://www.w3.org/Graphics/SVG/1.1/DTD/svg11.dtd">
<svg version="1.1" id="Layer_1" xmlns="http://www.w3.org/2000/svg" xmlns:xlink="http://www.w3.org/1999/xlink" x="0px" y="0px"
	 viewBox="0 0 1024 768" enable-background="new 0 0 1024 768" xml:space="preserve">
<symbol  id="Arm" viewBox="-317.4 -329.1 634.8 658.2">
	<path fill="#FFFFFF" stroke="#BCC2C6" stroke-miterlimit="10" d="M227.5,88.6c-0.3,0-66.9-6.6-91.7,8.6c-1.7,1.1-3.3,2-4.9,2.8
		L-56.7,224c-18.1,13.7-44,10.2-57.7-8c-13.7-18.1-10.2-44,8-57.7L67.8,7.5c22.5-20.8,33-85.8,33-86.1c0.8-8.1,6.1-15,13.7-17.8
		l102.4-38.2c8.8-3.3,18.7-0.4,24.3,7.1l35.7,47.1l35.7,47.1c5.7,7.5,5.7,17.8,0.2,25.3l-64.5,88.3C243.6,86.8,235.4,90,227.5,88.6z
		"/>
	<g>
		<path fill="#D31E49" d="M188.2,56.7c0,6.6,8,12,17.8,12s17.8-5.4,17.8-12s-8-12-17.8-12S188.2,50.1,188.2,56.7z"/>
		<path fill="#D31E49" d="M160.7,56.7c0,0,28.5,3,35.5,10V46.7C188.6,54.3,160.7,56.7,160.7,56.7z"/>
	</g>
	<path fill="none" stroke="#90298D" stroke-miterlimit="10" d="M88.1,43.1c0,14,11.3,25.3,25.3,25.3s25.3-11.3,25.3-25.3
		s-11.3-25.3-25.3-25.3S88.1,29.1,88.1,43.1z"/>
	<path fill="#EDF0F1" stroke="#BCC2C6" stroke-miterlimit="10" d="M159.2,68.5c-3.4,6.4-8.3,12.1-14.4,16.8
		c-23,17.4-55.8,12.9-73.3-10.1S58.6,19.3,81.6,1.9c6.2-4.7,13-7.7,20.1-9.3l93.5-35.7c8.4-4.1,18.8-1.8,24.7,5.9s5.2,18.4-1,25.3
		L159.2,68.5z"/>
	<path fill="none" stroke="#90298D" stroke-miterlimit="10" d="M-97.8,167.1c-12.8,9.7-15.3,27.8-5.6,40.6s27.8,15.3,40.6,5.6
		c12.8-9.7,15.3-27.8,5.6-40.6S-85.1,157.4-97.8,167.1z"/>
	<line fill="none" stroke="#BCC2C6" stroke-miterlimit="10" x1="-80.3" y1="190.2" x2="276.9" y2="-80.5"/>
	<line fill="none" stroke="#D31E49" stroke-width="3" stroke-miterlimit="10" x1="219.8" y1="-37.2" x2="276.9" y2="-80.5"/>
	<line fill="none" stroke="#D31E49" stroke-width="3" stroke-miterlimit="10" x1="-80.3" y1="190.2" x2="71.5" y2="75.2"/>
	<path fill="none" stroke="#90298D" stroke-width="0.6707" stroke-miterlimit="10" d="M33,257.5c-12.8-12.4-33.1-12.1-45.5,0.7
		c-12.4,12.8-12.1,33.1,0.7,45.5C1,316.1,21.3,315.8,33.7,303C46.1,290.3,45.8,269.9,33,257.5z"/>
	<path fill="none" stroke="#90298D" stroke-miterlimit="10" d="M-69.5,179.6c-6.6-6.4-17.2-6.3-23.7,0.4c-6.4,6.6-6.3,17.2,0.4,23.7
		s17.2,6.3,23.7-0.4S-62.9,186-69.5,179.6z"/>
	<path fill="none" stroke="#90298D" stroke-width="0.6539" stroke-miterlimit="10" d="M-279.1-18.2c-6.7-6.5-17.5-6.4-24,0.4
		s-6.4,17.5,0.4,24s17.5,6.4,24-0.4C-272.2-0.9-272.3-11.7-279.1-18.2z"/>
	<path fill="#FFFFFF" stroke="#BCC2C6" stroke-miterlimit="10" d="M-25.4,312.3L-309,12.6c-10.3-10-10.6-26.5-0.6-36.8
		s26.5-10.6,36.8-0.6L39.6,242.4c1.5,1.2,3,2.4,4.4,3.8c19,18.4,19.5,48.8,1.1,67.9s-48.8,19.5-67.9,1.1
		C-23.7,314.2-24.6,313.3-25.4,312.3z"/>
	<line fill="none" stroke="#90298D" stroke-miterlimit="10" x1="-93.2" y1="180" x2="-69.2" y2="203.3"/>
	<line fill="none" stroke="#90298D" stroke-miterlimit="10" x1="-69.5" y1="179.6" x2="-92.9" y2="203.7"/>
	<path fill="none" stroke="#90298D" stroke-width="3" stroke-miterlimit="10" d="M-290.9-6"/>
	<line fill="none" stroke="#D31E49" stroke-width="2" stroke-miterlimit="10" x1="45.1" y1="314" x2="-309.6" y2="-24.1"/>
	<path fill="#D31E49" d="M-283.2,19.7c-11.3-10.8,0-19.3-19.3-37.8c18.1,17.3,27.3,6.7,38.6,17.5c11.3,10.8,0,19.3,19.3,37.8
		C-262.6,20-271.8,30.5-283.2,19.7z"/>
	<path fill="#D31E49" d="M-189.4,109.8c-11.3-10.8,0-19.3-19.3-37.8c18.1,17.3,27.3,6.7,38.6,17.5c11.3,10.8,0,19.3,19.3,37.8
		C-168.9,110-178.1,120.6-189.4,109.8z"/>
	<path fill="#D31E49" d="M-154,131.6c-4.5-4.3,0-7.7-7.6-15c7.2,6.9,10.8,2.7,15.3,6.9c4.5,4.3,0,7.7,7.6,15
		C-145.8,131.7-149.5,135.9-154,131.6z"/>
	
		<use xlink:href="#Curve_2"  width="80" height="28" x="-40" y="-14" transform="matrix(0.3874 0.37 -0.37 0.3874 -30.6328 242.1848)" overflow="visible"/>
	<path fill="#FFFFFF" stroke="#BCC2C6" stroke-miterlimit="10" d="M-268.2-5.8c0,12.4-10.1,22.5-22.5,22.5s-22.5-10.1-22.5-22.5
		c0-1.7,0.2-3.3,0.5-4.8l4.5-41.2h35l4.5,41.2C-268.4-9.1-268.2-7.4-268.2-5.8z"/>
	<polygon fill="#94A4A5" stroke="#94A4A5" stroke-miterlimit="10" points="-273.2,-69.3 -308.2,-69.3 -308.2,-51.8 -273.2,-51.8 	
		"/>
	<path fill="#D31E49" d="M-100.8,206.7c-18.5-17.7,0-31.6-31.5-61.7c29.5,28.2,44.5,10.9,63,28.6c18.5,17.7,0,31.6,31.5,61.7
		C-67.3,207.1-82.3,224.3-100.8,206.7z"/>
	<path fill="#EDF0F1" stroke="#BCC2C6" stroke-miterlimit="10" d="M-19.7,284.2l2.3-2.3c-8.1-7.8-8.3-20.7-0.5-28.8
		c7.8-8.1,20.7-8.3,28.8-0.5l2.3-2.3c2.2-2.2,5.8-2.3,8-0.1l25.1,24.3c2.2,2.2,2.3,5.8,0.1,8l-1.4,1.4l1.3,1.3
		c2.2,2.2,2.3,5.8,0.1,8l-22.2,22.9c-2.2,2.2-5.8,2.3-8,0.1l-1.3-1.3l-1.4,1.4c-2.2,2.2-5.8,2.3-8,0.1l-25.1-24.3
		C-21.8,290-21.9,286.4-19.7,284.2z"/>
	<path fill="#EDF0F1" stroke="#BCC2C6" stroke-miterlimit="10" d="M-304.2-5.8c0,7.5,6,13.5,13.5,13.5s13.5-6,13.5-13.5
		s-6-13.5-13.5-13.5S-304.2-13.2-304.2-5.8z"/>
	<path fill="#EDF0F1" stroke="#BCC2C6" stroke-miterlimit="10" d="M244.8-318.9v32.6c0,31.3-5.4,46.7-36.7,46.7H18.8
		c-31.3,0-36.7-15.4-36.7-46.7v-32.6H244.8z"/>
	<path fill="#FFFFFF" stroke="#BCC2C6" stroke-miterlimit="10" d="M192.8-318.9v22.6c0,31.3-15.4,56.7-46.7,56.7H80.8
		c-31.3,0-46.7-25.4-46.7-56.7v-22.6H192.8z"/>
	<polygon fill="#BDC3C7" stroke="#BCC2C6" stroke-miterlimit="10" points="-5.9,-328.6 232.8,-328.6 232.8,-318.9 -5.9,-318.9 	"/>
	<polygon fill="#EDF0F1" stroke="#BCC2C6" stroke-miterlimit="10" points="-5.9,-328.6 -17.9,-328.6 -17.9,-318.9 -5.9,-318.9 	"/>
	<polygon fill="#EDF0F1" stroke="#BCC2C6" stroke-miterlimit="10" points="244.8,-328.6 232.8,-328.6 232.8,-318.9 244.8,-318.9 	
		"/>
	<polygon fill="#FFFFFF" stroke="#BCC2C6" stroke-miterlimit="10" points="40.1,-233.6 186.8,-233.6 186.8,-239.6 40.1,-239.6 	"/>
	<path fill="#EDF0F1" stroke="#BCC2C6" stroke-miterlimit="10" d="M186.8-233.6c0,3.9-3.2,7.1-7.1,7.1H47.2c-3.9,0-7.1-3.2-7.1-7.1
		H186.8z"/>
	<path fill="#FFFFFF" stroke="#BCC2C6" stroke-miterlimit="10" d="M113.5,79.1c-19.9,0-36-16.1-36-36v-269.6h72V43.1
		C149.5,62.9,133.3,79.1,113.5,79.1z"/>
	<line fill="none" stroke="#BCC2C6" stroke-miterlimit="10" x1="113.2" y1="18.5" x2="113.2" y2="-226.5"/>
	<path fill="none" stroke="#D31E49" stroke-width="3" stroke-miterlimit="10" d="M98,23.6C87,31.9,84.8,47.7,93.2,58.8
		s24.1,13.2,35.2,4.9c11.1-8.4,13.2-24.1,4.9-35.2S109.1,15.2,98,23.6z"/>
	<polyline fill="none" stroke="#D31E49" stroke-width="6" stroke-linejoin="round" stroke-miterlimit="10" points="113.2,17.7 
		113.2,-132.7 130.6,-144.7 130.6,-226.5 	"/>
	<g>
		<path fill="#D31E49" d="M289-37.5c-2.2-3-7.6-2.7-12.1,0.6c-4.4,3.3-6.2,8.4-4,11.4s7.6,2.7,12.1-0.6
			C289.5-29.4,291.3-34.6,289-37.5z"/>
		<path fill="#D31E49" d="M301.4-46.8c0,0-13.8,8.3-19.4,7.5l6.8,9C289.6-36.3,301.4-46.8,301.4-46.8z"/>
	</g>
	<g>
		<path fill="#D31E49" d="M238.7-103.4c-2.2-3-7.6-2.7-12.1,0.6c-4.4,3.3-6.2,8.4-4,11.4c2.2,3,7.6,2.7,12.1-0.6
			C239.2-95.3,240.9-100.4,238.7-103.4z"/>
		<path fill="#D31E49" d="M251.1-112.7c0,0-13.8,8.3-19.4,7.5l6.8,9C239.3-102.2,251.1-112.7,251.1-112.7z"/>
	</g>
</symbol>
<symbol  id="Curve_2" viewBox="-40 -14 80 28">
	<path fill="#D31E49" d="M0,14C-15.7,14-13.3,0-40,0c25,0,24.3-14,40-14C15.7-14,13.3,0,40,0C15,0,15.7,14,0,14z"/>
</symbol>
<linearGradient id="SVGID_1_" gradientUnits="userSpaceOnUse" x1="512" y1="-2.298657e-08" x2="512" y2="768">
	<stop  offset="0.1757" style="stop-color:#FFFFFF"/>
	<stop  offset="0.4246" style="stop-color:#FAFAFA"/>
	<stop  offset="0.6087" style="stop-color:#EFEFF0"/>
	<stop  offset="0.772" style="stop-color:#DFE1E3"/>
	<stop  offset="0.9223" style="stop-color:#CACED2"/>
	<stop  offset="1" style="stop-color:#BDC3C7"/>
</linearGradient>
<rect fill="url(#SVGID_1_)" width="1024" height="768"/>
<rect y="680" fill="#EDF0F1" width="1023" height="86"/>
<use xlink:href="#Arm"  width="634.8" height="658.2" x="-317.4" y="-329.1" transform="matrix(0.5045 0 0 -0.5045 757.6165 536.0631)" overflow="visible"/>
</svg>
