<?xml version="1.0" encoding="utf-8"?>
<!-- Generator: Adobe Illustrator 17.1.0, SVG Export Plug-In . SVG Version: 6.00 Build 0)  -->
<!DOCTYPE svg PUBLIC "-//W3C//DTD SVG 1.1//EN" "http://www.w3.org/Graphics/SVG/1.1/DTD/svg11.dtd">
<svg version="1.1" id="Layer_1" xmlns="http://www.w3.org/2000/svg" xmlns:xlink="http://www.w3.org/1999/xlink" x="0px" y="0px"
	 viewBox="0 0 1024 86" enable-background="new 0 0 1024 86" xml:space="preserve">
<symbol  id="Curve_2" viewBox="-40 -14 80 28">
	<path fill="#D31E49" d="M0,14C-15.7,14-13.3,0-40,0c25,0,24.3-14,40-14C15.7-14,13.3,0,40,0C15,0,15.7,14,0,14z"/>
</symbol>
<symbol  id="New_Symbol" viewBox="0 -39.3 192.5 39.3">
	<g>
		<g>
			<g>
				<g>
					<g>
						<g>
							<g>
								<g>
									<path fill="#231F20" d="M25.4-32.4h-0.1c-1.2-2.4-4-6.8-10.7-6.8c-9.2,0-9.2,7.2-9.2,11.3v7.8c0,3.9-1.1,4.8-5.3,4.9v1.1
										l12.2,1.8V-29c0-5,2.3-6.5,5.7-6.5c4.5,0,7.5,4.7,7.5,9.3v6.1c0,3.9-1.2,4.8-5.3,4.9v1.1l12.2,1.8v-26.3h-6.9V-32.4z"/>
									<path fill="#231F20" d="M38.6-20.2c0,3.9-1.2,4.8-5.5,4.9v1.1l12.4,1.8v-7.1h0.1c1,1.9,4.7,7.1,11.5,7.1
										c6.3,0,8.4-3.5,8.4-7.8v-18.5h-6.9v14.3c0,4.4,0,8.2-4.6,8.2c-4.6,0-8.5-5.1-8.5-9.1v-13.5h-6.9V-20.2z"/>
								</g>
								<g>
									<path fill="#231F20" d="M71.2-20.2c0,3.9-1.1,4.8-5.3,4.9v1.1l12.2,1.8v-26.3h-6.9V-20.2z"/>
								</g>
							</g>
						</g>
					</g>
				</g>
				<g>
					<g>
						<g>
							<g>
								<g>
									<path fill="#B71F37" d="M102.9-35.6c-1.7-1.3-4.6-3.7-9.5-3.7c-9,0-12.4,6-12.4,12.9c0,7,3.5,14,12.6,14
										c5.7,0,7.8-2.3,9.1-4.1h0.1v9c0,3.9-1.1,4.9-5.2,5v1.1L109.8,0v-38.6h-6.9V-35.6z M102.9-24.2c0,3.1-0.8,8.8-7.3,8.8
										c-6.3,0-7-6.3-7-10.2c0-4.3,0.6-10.7,7-10.7c6.6,0,7.2,6.9,7.2,9.8V-24.2z"/>
								</g>
								<g>
									<path fill="#B71F37" d="M138.2-37.8c-1.3-0.4-5-1.5-9.7-1.5c-10.6,0-16.9,5.1-16.9,14.4c0,8.7,5.2,12.5,14.5,12.5
										c11.8,0,12.8-6.8,12.8-10.5h-19.7c0-5.5,2.8-13.4,12.6-13.4c2.9,0,5.3,0.6,6.5,0.9V-37.8z M131.9-20.7
										c0,1.3-0.1,6.5-6.1,6.5c-5.2,0-6.6-4.4-6.6-6.5H131.9z"/>
								</g>
							</g>
						</g>
					</g>
				</g>
				<g>
					<g>
						<g>
							<g>
								<g>
									<path fill="#B71F37" d="M160.2-17.4c-1,0.6-4.3,2.7-8.2,2.7c-2.2,0-4.8-0.7-4.8-3c0-5.2,15.1-5.4,15.1-13.8
										c0-5.4-5.6-7.6-12.4-7.6c-4.2,0-7.2,0.7-8.8,1v4.3c2-1.1,5.2-2.9,9.1-2.9c4.3,0,5.9,1.8,5.9,3.7c0,5.4-15.1,5.7-15.1,13.4
										c0,4,3.4,7.4,11.5,7.4c3.5,0,6.6-0.7,7.7-0.9V-17.4z"/>
								</g>
							</g>
						</g>
					</g>
				</g>
				<g>
					<g>
						<g>
							<g>
								<g>
									<path fill="#B71F37" d="M164.1-7.5c0,3.9-1.2,4.9-5.4,5v1.1L171,0v-24.1L184.4-13h5.2l-12.3-10l15.1-15.7h-8.8l-12.6,13.9
										H171v-13.9h-6.9V-7.5z"/>
								</g>
							</g>
						</g>
					</g>
				</g>
			</g>
		</g>
		<g>
			<path fill="#B71F37" d="M186.9-6c0.5,0,0.9-0.1,1.4-0.4c0.4-0.2,0.8-0.6,1-1c0.2-0.4,0.4-0.9,0.4-1.4c0-0.5-0.1-0.9-0.4-1.4
				c-0.2-0.4-0.6-0.8-1-1c-0.4-0.2-0.9-0.4-1.4-0.4c-0.5,0-0.9,0.1-1.4,0.4c-0.4,0.2-0.8,0.6-1,1c-0.2,0.4-0.4,0.9-0.4,1.4
				c0,0.5,0.1,1,0.4,1.4c0.3,0.4,0.6,0.8,1,1C186-6.1,186.5-6,186.9-6z M186.9-6.5c-0.4,0-0.8-0.1-1.1-0.3c-0.4-0.2-0.7-0.5-0.9-0.9
				c-0.2-0.4-0.3-0.8-0.3-1.2c0-0.4,0.1-0.8,0.3-1.2c0.2-0.4,0.5-0.7,0.9-0.9c0.4-0.2,0.8-0.3,1.2-0.3c0.4,0,0.8,0.1,1.2,0.3
				c0.4,0.2,0.7,0.5,0.9,0.9c0.2,0.4,0.3,0.8,0.3,1.2c0,0.4-0.1,0.8-0.3,1.2c-0.2,0.4-0.5,0.7-0.9,0.9
				C187.7-6.6,187.3-6.5,186.9-6.5z M185.7-10.4v3h1c0.4,0,0.6,0,0.8-0.1c0.2-0.1,0.3-0.2,0.4-0.3C188-7.9,188-8,188-8.2
				c0-0.2-0.1-0.4-0.2-0.6c-0.2-0.2-0.4-0.3-0.6-0.3c0.1,0,0.2-0.1,0.3-0.2c0.1-0.1,0.3-0.3,0.4-0.6l0.4-0.6h-0.6l-0.3,0.5
				c-0.2,0.4-0.4,0.6-0.5,0.7c-0.1,0.1-0.2,0.1-0.4,0.1h-0.3v-1.3H185.7z M186.2-8.7h0.6c0.3,0,0.5,0,0.6,0.1
				c0.1,0.1,0.2,0.2,0.2,0.3c0,0.1,0,0.2-0.1,0.2c0,0.1-0.1,0.1-0.2,0.2c-0.1,0-0.2,0.1-0.5,0.1h-0.6V-8.7z"/>
		</g>
	</g>
	<path fill="#231F20" d="M69.8-5.6c-0.1,2.4,1.9,4.5,4.3,4.5c2.4,0.1,4.5-1.9,4.5-4.3c0.1-2.4-1.9-4.5-4.3-4.5
		C71.9-9.9,69.9-8,69.8-5.6z"/>
</symbol>
<g>
	<rect x="1" fill="#EDF0F1" width="1023" height="86"/>
	<text transform="matrix(1 0 0 1 552.5977 44.6992)"><tspan x="0" y="0" fill="#354748" font-family="'Roboto-Light'" font-size="13.9352">Desktop Layering</tspan><tspan x="0" y="14.9" fill="#354748" font-family="'Roboto-Light'" font-size="13.9352">for VDI™</tspan></text>
	
		<use xlink:href="#New_Symbol"  width="192.5" height="39.3" x="0" y="-39.3" transform="matrix(0.929 0 0 -0.929 367.6572 24.2766)" overflow="visible"/>
</g>
</svg>
